<svg xmlns="http://www.w3.org/2000/svg" width="40" height="40" fill="none"><path fill="#fff" d="m27.611 14.57-1.172-2.03-1.393.805c-.429.246-.97.2-1.346-.123a5.857 5.857 0 0 0-1.828-1.062 1.17 1.17 0 0 1-.778-1.104V9.454H18.75v1.604c0 .495-.311.937-.778 1.103a5.853 5.853 0 0 0-1.828 1.062 1.17 1.17 0 0 1-1.346.123l-1.394-.805-1.172 2.03 1.374.793c.429.248.657.74.566 1.228a5.232 5.232 0 0 0 0 2.13c.09.488-.137.98-.566 1.229l-1.374.793 1.172 2.03 1.394-.806a1.171 1.171 0 0 1 1.346.124 5.806 5.806 0 0 0 1.827 1.06c.467.165.78.608.78 1.104v1.604h2.343v-1.603c0-.495.311-.937.778-1.103A5.857 5.857 0 0 0 23.7 22.09a1.172 1.172 0 0 1 1.346-.124l1.393.806 1.172-2.03-1.373-.793a1.173 1.173 0 0 1-.567-1.228 5.232 5.232 0 0 0 0-2.131c-.09-.488.138-.98.567-1.228l1.373-.793Zm-7.69 6.602a3.52 3.52 0 0 1-3.515-3.516 3.52 3.52 0 0 1 3.516-3.515 3.52 3.52 0 0 1 3.516 3.515 3.52 3.52 0 0 1-3.516 3.516Z"/><path fill="#fff" d="M19.922 16.484a1.173 1.173 0 1 0 .001 2.345 1.173 1.173 0 0 0-.001-2.345ZM38.828 32.89H1.172C.525 32.89 0 33.416 0 34.063a3.516 3.516 0 0 0 3.516 3.516h32.812c1.942 0 3.672-1.574 3.672-3.516 0-.647-.525-1.171-1.172-1.171Z"/><path fill="#fff" d="M37.5 5.938a3.516 3.516 0 0 0-3.516-3.516H5.86a3.516 3.516 0 0 0-3.515 3.515v24.61H37.5V5.937Zm-9.406 12.376 1.704.984c.56.325.753 1.04.43 1.602l-2.344 4.06a1.175 1.175 0 0 1-1.602.43l-1.73-1.001a8.2 8.2 0 0 1-1.114.646v1.996c0 .648-.525 1.172-1.172 1.172h-4.688a1.171 1.171 0 0 1-1.172-1.172v-1.996a8.206 8.206 0 0 1-1.113-.646l-1.732 1a1.175 1.175 0 0 1-1.6-.429L9.615 20.9a1.172 1.172 0 0 1 .43-1.602l1.704-.984a7.046 7.046 0 0 1 0-1.316l-1.704-.984a1.172 1.172 0 0 1-.43-1.601l2.344-4.06a1.173 1.173 0 0 1 1.601-.43l1.732 1a8.206 8.206 0 0 1 1.113-.646V8.281c0-.647.524-1.172 1.172-1.172h4.688c.647 0 1.172.525 1.172 1.172v1.996a8.2 8.2 0 0 1 1.113.647l1.731-1a1.173 1.173 0 0 1 1.602.428l2.343 4.06a1.172 1.172 0 0 1-.429 1.602l-1.704.984c.041.456.041.858 0 1.316Z"/></svg>